<svg xmlns="http://www.w3.org/2000/svg" width="44" height="32" fill="none"><path fill="#41479B" d="M0 21.33h44V32H0z"/><path fill="#FF4B55" d="M0 0h44v10.67H0z"/><path fill="#F5F5F5" d="M44 10.666H0v10.666h44V10.666Z"/><path fill="#FF4B55" d="M18.814 10.948h-2.125v2.695h2.125v-2.695ZM23.06 10.948h-2.123v2.695h2.124v-2.695ZM20.938 13.643h-2.124v2.695h2.124v-2.695ZM27.309 10.948h-2.124v2.695h2.124v-2.695ZM25.186 13.643H23.06v2.695h2.125v-2.695Z"/><path fill="#F5F5F5" d="M20.938 10.948h-2.124v2.695h2.124v-2.695ZM25.186 10.948H23.06v2.695h2.125v-2.695ZM18.814 13.643h-2.125v2.695h2.125v-2.695ZM23.06 13.643h-2.123v2.695h2.124v-2.695ZM27.309 13.643h-2.124v2.695h2.124v-2.695Z"/><path fill="#FF4B55" d="M23.063 16.337h-2.124v2.695h2.124v-2.695ZM20.938 19.032h-2.124v2.695h2.124v-2.695ZM25.186 19.032H23.06v2.695h2.125v-2.695Z"/><path fill="#F5F5F5" d="M20.938 16.337h-2.124v2.695h2.124v-2.695ZM25.186 16.337H23.06v2.695h2.125v-2.695ZM23.062 19.032h-2.125v2.695h2.125v-2.695Z"/><path fill="#FF4B55" d="M27.31 10.946v7.579c0 3.256-2.377 5.895-5.31 5.895s-5.31-2.64-5.31-5.895v-7.579h10.62Zm.38-.421H16.31v8c0 3.483 2.553 6.316 5.69 6.316 3.137 0 5.69-2.833 5.69-6.316v-8Z"/><path fill="#FF4B55" d="M18.814 19.03v-2.694H16.69v2.19c0 .17.01.337.023.505h2.101Z"/><path fill="#F5F5F5" d="M27.287 19.03h-2.101v2.695h1.27c.46-.789.755-1.706.83-2.695ZM17.543 21.725h1.27V19.03h-2.101a6.29 6.29 0 0 0 .831 2.695Z"/><path fill="#FF4B55" d="M25.185 19.032h2.1c.014-.167.024-.335.024-.506v-2.19h-2.124v2.696ZM18.813 23.234v-1.508h-1.27a5.72 5.72 0 0 0 1.27 1.508ZM26.455 21.726h-1.27v1.508c.5-.417.93-.925 1.27-1.508Z"/><path fill="#F5F5F5" d="M18.814 23.232a5.047 5.047 0 0 0 2.124 1.069v-2.577h-2.124v1.508ZM23.061 24.3a5.046 5.046 0 0 0 2.125-1.068v-1.508H23.06V24.3Z"/><path fill="#FF4B55" d="M23.063 21.726h-2.124v2.576a4.82 4.82 0 0 0 2.124 0v-2.576Z"/><path fill="#4173CD" d="M18.155 6.487c-.462-.08-.935-.137-1.417-.17-.372.34-.728.696-1.065 1.064l1.016 2.723c.68-.313 1.377-.563 2.084-.75l-.618-2.867ZM23.288 6.04A15.16 15.16 0 0 0 22 5.395c-.444.196-.874.412-1.289.645l.207 2.939a12.48 12.48 0 0 1 2.164 0l.207-2.939ZM28.326 7.38a17.132 17.132 0 0 0-1.065-1.063c-.482.033-.955.09-1.417.17l-.617 2.867c.706.187 1.403.437 2.083.75l1.016-2.723Z"/><path fill="#41479B" d="M20.71 6.042a14.517 14.517 0 0 0-1.366-.414c-.412.27-.809.558-1.189.861l.618 2.867a12.61 12.61 0 0 1 2.144-.375l-.207-2.939ZM25.843 6.49c-.38-.304-.777-.592-1.189-.862-.467.117-.923.256-1.366.414l-.207 2.939a12.6 12.6 0 0 1 2.144.375l.618-2.867Z"/><path fill="#FF4B55" d="M20.793 7.215c-.803.07-1.602.209-2.39.418l-.124-.574c.815-.216 1.642-.36 2.473-.432l.041.588ZM20.875 8.39c-.748.065-1.492.195-2.226.39l-.124-.574a13.557 13.557 0 0 1 2.309-.404l.041.588Z"/><path fill="#FFE15A" d="M24.52 8.59c-.184-.037-.37-.07-.556-.098a.615.615 0 0 1-.508-.66.561.561 0 0 1 .652-.508c.2.03.4.065.598.105.332.065.547.39.482.706a.57.57 0 0 1-.667.454Z"/><path fill="#FF4B55" d="M27.513 9.56a13.43 13.43 0 0 0-2.163-.78l.123-.572c.761.202 1.511.471 2.243.808l-.203.544Z"/><path fill="#FFE15A" d="M27.325 7.792c-.076.23-.329.339-.568.252-.239-.086-.385-.338-.324-.573.06-.235.316-.36.57-.268.254.092.396.36.322.589ZM17.568 7.47c.06.236-.086.488-.325.574-.239.086-.492-.023-.567-.252-.075-.23.068-.498.322-.589.253-.091.51.033.57.268ZM21.88 7.085a.364.364 0 0 1-.354.361.358.358 0 0 1-.373-.336.36.36 0 0 1 .353-.37.354.354 0 0 1 .373.345ZM22.848 7.11a.358.358 0 0 1-.373.336.364.364 0 0 1-.354-.36c0-.196.168-.354.373-.346a.36.36 0 0 1 .354.37ZM22.345 7.994a.351.351 0 0 1-.344.349.351.351 0 0 1-.345-.349.346.346 0 0 1 .345-.358c.195 0 .349.163.344.358Z"/></svg>