<svg xmlns="http://www.w3.org/2000/svg" width="44" height="32" fill="none"><path fill="#E6B432" d="M0 0h44v32H0z"/><path fill="#C8414B" d="M42.483 1.684H1.518v28.632h40.965V1.684Z"/><path fill="#41479B" d="M28.225 22.564c.637 0 1.154-.574 1.154-1.282 0-.708-.517-1.281-1.154-1.281-.638 0-1.155.573-1.155 1.281s.517 1.282 1.155 1.282Z"/><path fill="#E6B432" d="M30.25 13.927c-.85.792-1.421.826-1.421.826 1.511-.685 1.353-1.987 1.353-1.987-.714 1.044-1.443 1.336-1.443 1.336 1.518-1.144 1.278-2.68 1.278-2.68-.496 1.22-1.124 1.695-1.124 1.695 1.263-1.866.643-3.067.643-3.067-.497 1.727-.914 2.228-.914 2.228.97-2.88.14-3.71.14-3.71 0 1.544-.52 2.429-.52 2.429.542-2.036-.308-3.205-.308-3.205s-.008 1.66-.296 2.53c-.069-.117-.11-.101-.11-.101a4.451 4.451 0 0 1-.886 2.1c-.049-.266-.198-.348-.198-.348s-.027.261-.238.646c-.138.252-.79.84-.896 1.358-.084.414.286.759.406.842.12.084.248.234.196.476-.053.242-.444.217-.722.209-.278-.009-.316.5-.624.484l-.052.38-.121.029s-1.263 2.794-1.37 3.745l-.93.136-.931-.136c-.107-.951-1.37-3.745-1.37-3.745l-.121-.03-.053-.38c-.308.018-.345-.492-.624-.483-.278.008-.669.033-.721-.209-.053-.242.075-.392.195-.476.12-.083.49-.428.406-.842-.105-.518-.758-1.106-.896-1.358-.211-.385-.238-.646-.238-.646s-.149.082-.198.347a4.455 4.455 0 0 1-.886-2.1s-.04-.014-.11.102c-.288-.87-.296-2.53-.296-2.53s-.85 1.169-.308 3.205c0 0-.52-.885-.52-2.429 0 0-.83.83.14 3.71 0 0-.417-.5-.913-2.228 0 0-.62 1.201.642 3.067 0 0-.627-.476-1.124-1.694 0 0-.24 1.535 1.278 2.679 0 0-.729-.292-1.443-1.336 0 0-.158 1.302 1.353 1.987 0 0-.571-.034-1.42-.826 0 0-.151 1.151 1.819 1.744 0 0-.805-.017-1.624-.626 0 0-.023 1.135 1.661 1.36 0 0-.556.092-1.18-.158 0 0 .022.918 1.489 1.035 0 0-.58.05-.955-.05 0 0 .037.942 1.195.784 0 0-.39.142-.519.184 0 0 .023.77 1.23.494 0 0-.215.148-.508.198 0 0 .248.643 1.256.36l-.207.25s.778.5 1.376-.188l-.215.425s.508.213.824-.338c0 0-.087.827-1.14.977 0 0 .038.175.083.242 0 0-.067.142-.676.259 0 0 .127.217.263.284 0 0-.263.25-.406.3 0 0 .225.125.368.15 0 0-.316.342-.706.35a15.82 15.82 0 0 1-1.09-.041s-.008-.417-.189-.776c-.18-.36-.24-.386-.24-.386s.04-.288-.073-.407a3.649 3.649 0 0 0-.175-.176s.06-.575-.105-.934c-.166-.36-.752-1.144-.782-1.728-.03-.584-.008-.801-.008-.801l-.18.05-.12-.275.202-.026-.082-.417-.279.117-.037-.359-.331.15.165.326-.293.092.173.384.226-.159.06.334s-.136.033-.21.167c0 0 .371.274.48.6.173.518.12 1.687.369 2.037.248.35.444.593.444.593s-.07.238.009.369.192.169.192.169-.068.532.107.883c.175.35.276.438.276.438s-.637.432-.186.932c0 0-.06.455.368.564 0 0 .023.359.391.317 0 0 .18-.058.226.042.045.1 0 .676 0 .676s.165-.017.27-.1l.331.183.008-.409.413-.183s-.18.033-.549-.35c0 0 .06-.043.106-.368 0 0 .293-.259.353-.467.06-.209.474-.668.955-.818l.066.325s.688-.676.975-.713l.237.346s.887-1.46 1.278-1.72c-.03.118.188.134-.297.735s-.184 1.077-.184 1.077c-.3.275-.24.526-.278.81-.038.283-1.038 1.018-1.038 1.018.316.442.67.342.67.342-.196.142-.136.617-.136.617.286.084.572-.058.572-.058-.098.3.052.51.052.51.18-.126.594-.201.594-.201-.052.517.248.793.248.793l.263-.318c.045.585.512.918.512.918s.466-.333.511-.918l.263.318s.3-.276.248-.793c0 0 .414.075.594.2 0 0 .15-.209.053-.509 0 0 .286.142.571.058 0 0 .06-.475-.135-.617 0 0 .353.1.669-.342 0 0-1-.735-1.038-1.019-.037-.283.023-.534-.278-.81 0 0 .3-.475-.184-1.076-.485-.6-.267-.617-.297-.734.39.258 1.278 1.719 1.278 1.719l.237-.346c.288.037.975.713.975.713l.066-.325.013-.015c.358.214.95.504 1.19.707.256.217.466.234 1.083 0 .616-.233 1.763-.593 1.594-1.018-.01-.023-.02-.039-.03-.057a.463.463 0 0 0-.143-.469s.002.047 0 .107l-.587-.243a.361.361 0 0 0-.105-.164s.001.05-.007.118l-.15-.063.3-.94c-.023-.014-.048-.021-.072-.034.006-.085.02-.203.043-.326.074.029.14.064.19.108l.084-.344s-.091-.006-.211-.031a.909.909 0 0 1 .109-.258l-.399-.133s.01.134.004.301a.74.74 0 0 1-.207-.133l-.094.382c.032.002.14.012.267.037a.697.697 0 0 1-.12.286c-.015-.002-.028-.008-.042-.01l-.292.913-.793-.328c-.034.06-.06.125-.084.19.004-.01.008-.024.012-.03 0 0-.306.177-.302.439a.24.24 0 0 0-.134.152c-.09.263.462.852.327.927-.133.073-.827-.561-.938-.668.143-.03.352-.146.352-.146-.143-.05-.406-.3-.406-.3.135-.067.263-.284.263-.284-.61-.117-.677-.259-.677-.259a.985.985 0 0 0 .083-.242c-1.053-.15-1.14-.977-1.14-.977.316.551.824.338.824.338l-.215-.425c.598.688 1.376.188 1.376.188l-.206-.25c1.007.283 1.255-.36 1.255-.36-.293-.05-.507-.198-.507-.198 1.207.276 1.229-.494 1.229-.494-.128-.042-.519-.184-.519-.184 1.158.159 1.196-.784 1.196-.784-.376.1-.955.05-.955.05 1.466-.117 1.489-1.035 1.489-1.035-.625.25-1.181.158-1.181.158 1.684-.225 1.662-1.36 1.662-1.36-.82.61-1.624.626-1.624.626 1.97-.593 1.82-1.744 1.82-1.744Zm-1.709 8.256c-.08-.145.111-.275.198-.413l.333.138c-.113.15-.448.424-.53.275Zm-.222-.586c-.108.186-.184.394-.516.404-.418.013-.485-.4-.576-.626a.321.321 0 0 0-.123-.15c0-.04.002-.084.005-.129l1.21.5Z"/><path fill="#E6B432" d="M21.968 12.78s-.535-.508-.693-.783c0 0 .18-.082.27-.207 0 0-.484-.288-.744-.582 0 0 .17-.031.3-.15 0 0-.436-.088-.657-.483.503-.191.335-.713.335-.713-.102.15-.52.338-.97.125-.451-.212-.948-.062-.948.213 0 0-1.015-.325-.76.764 0 0 .163-.407.524-.257.36.15.727.664.727.664s-.225.137-.643-.013c0 0 .17.72.93.357 0 0 .302.18.317.705 0 0 .127-.075.21-.242 0 0 .12.51-.038.927 0 0 .211-.042.279-.117 0 0 .06.442-.203.801 0 0 1.156.611 1.889-.058 0 0-.276-.35-.367-.676 0 0 .152-.07.242-.276Z"/><path fill="#E6B432" d="M25.323 10.2c0-.275-.496-.425-.948-.213-.45.213-.868.025-.97-.125 0 0-.168.522.336.713-.221.395-.657.483-.657.483.13.119.3.15.3.15-.26.294-.745.582-.745.582.09.125.27.207.27.207-.157.275-.693.782-.693.782.09.207.242.276.242.276-.09.325-.366.675-.366.675.733.67 1.889.059 1.889.059-.263-.359-.203-.801-.203-.801.068.075.278.117.278.117-.158-.418-.037-.927-.037-.927a.61.61 0 0 0 .21.242c.015-.526.316-.705.316-.705.761.363.93-.357.93-.357-.417.15-.643.013-.643.013s.367-.514.728-.664c.36-.15.524.257.524.257.254-1.09-.761-.764-.761-.764Z"/><path fill="#E6B432" d="M24.864 16.85c-.1-.64-.185-1.193.064-1.826l.046-.118-.984-1.255-.116.043c-.01.004-1.04.377-1.7.01l-.082-.045-.082.046c-.657.365-1.689-.007-1.7-.011l-.116-.043-.984 1.255.046.118c.249.633.164 1.186.065 1.825-.094.604-.2 1.29-.013 2.124.202.907.882 1.229 1.482 1.514.463.219.9.426 1.147.86l.155.274.156-.274c.247-.434.683-.641 1.146-.86.6-.285 1.28-.607 1.483-1.514.186-.835.08-1.52-.013-2.124Zm-5.226-1.868.676-.861c.306.093 1.133.295 1.778-.008.645.303 1.472.101 1.779.008l.675.861c-.237.694-.144 1.298-.045 1.937.074.478.147.97.086 1.537h-4.99c-.06-.567.013-1.06.086-1.537.099-.639.192-1.243-.045-1.937Zm3.612 5.129c-.418.198-.849.402-1.158.789-.309-.387-.74-.591-1.157-.79-.587-.277-1.093-.52-1.26-1.203h4.835c-.167.683-.674.926-1.26 1.204Z"/><path fill="#41479B" d="m19.639 14.98.675-.862c.306.094 1.134.296 1.779-.008.644.304 1.472.102 1.778.008l.676.862c-.238.693-.144 1.298-.046 1.936.074.478.148.97.086 1.538h-4.989c-.061-.567.012-1.06.086-1.538.098-.638.192-1.243-.045-1.936Z"/><path fill="#73AF00" d="M19.65 18.786c.005.03.009.057.016.087.158.71.673.953 1.27 1.236.418.198.848.402 1.157.789.31-.387.74-.59 1.157-.79.597-.282 1.112-.526 1.27-1.235.007-.03.01-.058.017-.087h-4.888Z"/><path fill="#E6B432" d="M24.3 16.417c0-.37-.317-.427-.604-.421-.288.006-.708-.052-.719-.3-.006-.155.228-.17.38-.115.088.032.638.14.81-.268 0 0-.2.007-.413-.046-.163-.04-.834.052-.955.34-.12.287.269.573.717.573.448 0 .51.1.506.221-.004.16-.36.205-.564.203-.322-.13-1.072-.028-1.076-.044-.004-.02-.173-.341-.173-.341s.307-.024.346-.087c.04-.062-.233-.302-.233-.302s.229-.101.238-.173c.009-.08-.186-.267-.186-.267s.075-.083.132-.224c.04-.1-.282-.127-.282-.127.018-.077.01-.151-.075-.185-.066-.027-.31.076-.477.076-.166 0-.23.134-.23.134s-.293.039-.333.077c-.04.038.012.287.012.287-.15-.026-.219-.172-.219-.172-.075.376.276.414.276.414l.058.205.143.019c.144.019.075.172-.15.172-.223 0-.318.297-.318.297-.156.005-.243-.135-.277-.312-.039-.196-.016-.497.013-.687.034-.231-.07-.298-.07-.298l-.069.192c-.004-.197-.16-.216-.16-.216l-.026.24c-.078-.159-.212-.087-.212-.087s.13.52.125.548c-.004.029-.047.053-.108-.02-.06-.071-.104-.023-.104-.023.065.519.316.443.316.443s.011.162.087.492c.08.352.413.286.413.286 0 .115.08.28.104.664.022.383-.294.65-.294.65-.287-.006-.258.307-.258.307h.793c0-.814.315-.954.315-.954.468.024.918-.192.918-.192-.07.312.052.442.052.442.19-.029.095.389.039.389h-.243c-.069 0-.268.24-.268.24h.822s.126-.202.17-.302c.042-.101-.096-.24-.105-.346-.008-.106.143-.173.143-.173.16.25.528.264.528.264l-.008-.187s.19.072.233.134c.043.063.035.35-.195.384-.229.034-.246.217-.246.217h.627c.104 0 .186-.217.186-.298v-.73c0-.116-.086-.102-.29-.126-.184-.021-.166-.246-.243-.506.267-.01.68-.075.68-.381ZM24.251 7.687c-.051-.504-.413-1.146-1.791-1.446a.4.4 0 0 0-.224-.359v-.28h.226v-.3h-.226V5.05h-.27v.25h-.226v.3h.226v.282a.4.4 0 0 0-.224.358c-1.378.3-1.74.942-1.79 1.446-.065.628.34 1.224.706 1.452v.319h2.887v-.32c.365-.227.77-.823.706-1.451Zm-1.511.97h-.404V6.808c.333.167.539.423.599.775.074.438-.083.884-.195 1.072Zm-1.473-1.074c.06-.351.266-.607.6-.774v1.847h-.405a1.74 1.74 0 0 1-.195-1.073Zm-.334-.507a1.714 1.714 0 0 0-.13.43c-.065.411.01.828.133 1.15h-.094c-.203-.154-.463-.535-.425-.91.027-.263.207-.489.516-.67Zm2.428 1.58h-.095c.123-.322.198-.739.133-1.149a1.725 1.725 0 0 0-.13-.431c.31.181.489.407.516.67.038.375-.222.756-.424.91Z"/></svg>